<?xml version="1.0" encoding="utf-8"?>
<!-- Generator: Adobe Illustrator 25.0.0, SVG Export Plug-In . SVG Version: 6.00 Build 0)  -->
<svg version="1.1" id="Layer_1" xmlns="http://www.w3.org/2000/svg" xmlns:xlink="http://www.w3.org/1999/xlink" x="0px" y="0px"
	 viewBox="0 0 1280 1024" style="enable-background:new 0 0 1280 1024;" xml:space="preserve">
<style type="text/css">
	.st0{fill:#ADD19E;}
	.st1{fill:none;stroke:#94B785;stroke-width:0.9544;stroke-linecap:round;stroke-linejoin:round;stroke-miterlimit:10;}
	.st2{fill:none;stroke:#94B785;stroke-width:0.9969;stroke-linecap:round;stroke-linejoin:round;stroke-miterlimit:10;}
</style>
<rect class="st0" width="1280" height="1024"/>
<g>
	<polygon class="st1" points="563,148.7 558.7,148.7 560.9,141.7 563,134.7 565.2,141.7 567.3,148.7 	"/>
	<line class="st1" x1="563" y1="148.7" x2="563" y2="153.5"/>
	<line class="st1" x1="572.1" y1="145.8" x2="572.1" y2="153.5"/>
	<ellipse class="st2" cx="572.1" cy="140.1" rx="4.3" ry="5.7"/>
</g>
<g>
	<polygon class="st1" points="596.7,33.8 592.4,33.8 594.6,26.8 596.7,19.8 598.9,26.8 601,33.8 	"/>
	<line class="st1" x1="596.7" y1="33.8" x2="596.7" y2="38.6"/>
	<line class="st1" x1="605.8" y1="31" x2="605.8" y2="38.6"/>
	<ellipse class="st2" cx="605.8" cy="25.2" rx="4.3" ry="5.7"/>
</g>
<g>
	<polygon class="st1" points="393.7,69.8 389.4,69.8 391.6,62.8 393.7,55.8 395.9,62.8 398,69.8 	"/>
	<line class="st1" x1="393.7" y1="69.8" x2="393.7" y2="74.6"/>
	<line class="st1" x1="402.8" y1="67" x2="402.8" y2="74.6"/>
	<ellipse class="st2" cx="402.8" cy="61.2" rx="4.3" ry="5.7"/>
</g>
<g>
	<polygon class="st1" points="423.7,139 419.4,139 421.6,132 423.7,125 425.9,132 428,139 	"/>
	<line class="st1" x1="423.7" y1="139" x2="423.7" y2="143.8"/>
	<line class="st1" x1="432.8" y1="136.2" x2="432.8" y2="143.8"/>
	<ellipse class="st2" cx="432.8" cy="130.4" rx="4.3" ry="5.7"/>
</g>
<g>
	<polygon class="st1" points="477.2,223.4 472.9,223.4 475.1,216.4 477.2,209.4 479.4,216.4 481.5,223.4 	"/>
	<line class="st1" x1="477.2" y1="223.4" x2="477.2" y2="228.2"/>
	<line class="st1" x1="486.3" y1="220.6" x2="486.3" y2="228.2"/>
	<ellipse class="st2" cx="486.3" cy="214.8" rx="4.3" ry="5.7"/>
</g>
<g>
	<polygon class="st1" points="359.6,214.2 355.3,214.2 357.4,207.2 359.6,200.2 361.7,207.2 363.9,214.2 	"/>
	<line class="st1" x1="359.6" y1="214.2" x2="359.6" y2="219"/>
	<line class="st1" x1="368.7" y1="211.3" x2="368.7" y2="219"/>
	<ellipse class="st2" cx="368.7" cy="205.6" rx="4.3" ry="5.7"/>
</g>
<g>
	<polygon class="st1" points="510.4,66.1 506.2,66.1 508.3,59.1 510.4,52.1 512.6,59.1 514.7,66.1 	"/>
	<line class="st1" x1="510.4" y1="66.1" x2="510.4" y2="70.9"/>
	<line class="st1" x1="519.5" y1="63.3" x2="519.5" y2="70.9"/>
	<ellipse class="st2" cx="519.5" cy="57.5" rx="4.3" ry="5.7"/>
</g>
<g>
	<polygon class="st1" points="819.5,157.5 815.2,157.5 817.4,150.4 819.5,143.4 821.7,150.4 823.8,157.5 	"/>
	<line class="st1" x1="819.5" y1="157.5" x2="819.5" y2="162.2"/>
	<line class="st1" x1="828.6" y1="154.6" x2="828.6" y2="162.2"/>
	<ellipse class="st2" cx="828.6" cy="148.9" rx="4.3" ry="5.7"/>
</g>
<g>
	<polygon class="st1" points="676.5,66.1 672.2,66.1 674.4,59.1 676.5,52.1 678.7,59.1 680.8,66.1 	"/>
	<line class="st1" x1="676.5" y1="66.1" x2="676.5" y2="70.9"/>
	<line class="st1" x1="685.6" y1="63.3" x2="685.6" y2="70.9"/>
	<ellipse class="st2" cx="685.6" cy="57.5" rx="4.3" ry="5.7"/>
</g>
<g>
	<polygon class="st1" points="706.5,135.3 702.2,135.3 704.4,128.3 706.5,121.3 708.7,128.3 710.8,135.3 	"/>
	<line class="st1" x1="706.5" y1="135.3" x2="706.5" y2="140.1"/>
	<line class="st1" x1="715.6" y1="132.5" x2="715.6" y2="140.1"/>
	<ellipse class="st2" cx="715.6" cy="126.7" rx="4.3" ry="5.7"/>
</g>
<g>
	<polygon class="st1" points="760,219.7 755.7,219.7 757.9,212.7 760,205.7 762.2,212.7 764.3,219.7 	"/>
	<line class="st1" x1="760" y1="219.7" x2="760" y2="224.5"/>
	<line class="st1" x1="769.1" y1="216.9" x2="769.1" y2="224.5"/>
	<ellipse class="st2" cx="769.1" cy="211.2" rx="4.3" ry="5.7"/>
</g>
<g>
	<polygon class="st1" points="642.4,210.5 638.1,210.5 640.2,203.5 642.4,196.5 644.5,203.5 646.7,210.5 	"/>
	<line class="st1" x1="642.4" y1="210.5" x2="642.4" y2="215.3"/>
	<line class="st1" x1="651.5" y1="207.7" x2="651.5" y2="215.3"/>
	<ellipse class="st2" cx="651.5" cy="201.9" rx="4.3" ry="5.7"/>
</g>
<g>
	<polygon class="st1" points="793.2,62.4 788.9,62.4 791.1,55.4 793.2,48.4 795.4,55.4 797.5,62.4 	"/>
	<line class="st1" x1="793.2" y1="62.4" x2="793.2" y2="67.2"/>
	<line class="st1" x1="802.3" y1="59.6" x2="802.3" y2="67.2"/>
	<ellipse class="st2" cx="802.3" cy="53.8" rx="4.3" ry="5.7"/>
</g>
<g>
	<polygon class="st1" points="705.1,389.1 700.8,389.1 703,382 705.1,375 707.3,382 709.4,389.1 	"/>
	<line class="st1" x1="705.1" y1="389.1" x2="705.1" y2="393.8"/>
	<line class="st1" x1="714.2" y1="386.2" x2="714.2" y2="393.8"/>
	<ellipse class="st2" cx="714.2" cy="380.5" rx="4.3" ry="5.7"/>
</g>
<g>
	<polygon class="st1" points="545.5,275.1 541.2,275.1 543.4,268.1 545.5,261.1 547.7,268.1 549.8,275.1 	"/>
	<line class="st1" x1="545.5" y1="275.1" x2="545.5" y2="279.9"/>
	<line class="st1" x1="554.6" y1="272.2" x2="554.6" y2="279.9"/>
	<ellipse class="st2" cx="554.6" cy="266.5" rx="4.3" ry="5.7"/>
</g>
<g>
	<polygon class="st1" points="592.1,366.9 587.8,366.9 590,359.9 592.1,352.9 594.2,359.9 596.4,366.9 	"/>
	<line class="st1" x1="592.1" y1="366.9" x2="592.1" y2="371.7"/>
	<line class="st1" x1="601.2" y1="364" x2="601.2" y2="371.7"/>
	<ellipse class="st2" cx="601.2" cy="358.3" rx="4.3" ry="5.7"/>
</g>
<g>
	<polygon class="st1" points="645.6,451.3 641.3,451.3 643.5,444.3 645.6,437.3 647.8,444.3 649.9,451.3 	"/>
	<line class="st1" x1="645.6" y1="451.3" x2="645.6" y2="456.1"/>
	<line class="st1" x1="654.7" y1="448.5" x2="654.7" y2="456.1"/>
	<ellipse class="st2" cx="654.7" cy="442.7" rx="4.3" ry="5.7"/>
</g>
<g>
	<polygon class="st1" points="528,442.1 523.7,442.1 525.8,435.1 528,428.1 530.1,435.1 532.3,442.1 	"/>
	<line class="st1" x1="528" y1="442.1" x2="528" y2="446.9"/>
	<line class="st1" x1="537" y1="439.2" x2="537" y2="446.9"/>
	<ellipse class="st2" cx="537" cy="433.5" rx="4.3" ry="5.7"/>
</g>
<g>
	<polygon class="st1" points="687.6,294 683.3,294 685.4,287 687.6,280 689.7,287 691.9,294 	"/>
	<line class="st1" x1="687.6" y1="294" x2="687.6" y2="298.8"/>
	<line class="st1" x1="696.7" y1="291.2" x2="696.7" y2="298.8"/>
	<ellipse class="st2" cx="696.7" cy="285.4" rx="4.3" ry="5.7"/>
</g>
<g>
	<polygon class="st1" points="431.1,379.4 426.8,379.4 429,372.3 431.1,365.3 433.2,372.3 435.4,379.4 	"/>
	<line class="st1" x1="431.1" y1="379.4" x2="431.1" y2="384.1"/>
	<line class="st1" x1="440.2" y1="376.5" x2="440.2" y2="384.1"/>
	<ellipse class="st2" cx="440.2" cy="370.8" rx="4.3" ry="5.7"/>
</g>
<g>
	<polygon class="st1" points="371.6,441.6 367.3,441.6 369.4,434.6 371.6,427.6 373.7,434.6 375.9,441.6 	"/>
	<line class="st1" x1="371.6" y1="441.6" x2="371.6" y2="446.4"/>
	<line class="st1" x1="380.7" y1="438.8" x2="380.7" y2="446.4"/>
	<ellipse class="st2" cx="380.7" cy="433.1" rx="4.3" ry="5.7"/>
</g>
<g>
	<polygon class="st1" points="404.8,284.3 400.5,284.3 402.7,277.3 404.8,270.3 407,277.3 409.1,284.3 	"/>
	<line class="st1" x1="404.8" y1="284.3" x2="404.8" y2="289.1"/>
	<line class="st1" x1="413.9" y1="281.5" x2="413.9" y2="289.1"/>
	<ellipse class="st2" cx="413.9" cy="275.7" rx="4.3" ry="5.7"/>
</g>
<g>
	<polygon class="st1" points="836.1,284.3 831.8,284.3 834,277.3 836.1,270.3 838.3,277.3 840.4,284.3 	"/>
	<line class="st1" x1="836.1" y1="284.3" x2="836.1" y2="289.1"/>
	<line class="st1" x1="845.2" y1="281.5" x2="845.2" y2="289.1"/>
	<ellipse class="st2" cx="845.2" cy="275.7" rx="4.3" ry="5.7"/>
</g>
<g>
	<polygon class="st1" points="866.1,353.5 861.8,353.5 864,346.5 866.1,339.5 868.3,346.5 870.4,353.5 	"/>
	<line class="st1" x1="866.1" y1="353.5" x2="866.1" y2="358.3"/>
	<line class="st1" x1="875.2" y1="350.7" x2="875.2" y2="358.3"/>
	<ellipse class="st2" cx="875.2" cy="344.9" rx="4.3" ry="5.7"/>
</g>
<g>
	<polygon class="st1" points="919.6,438 915.3,438 917.5,430.9 919.6,423.9 921.8,430.9 923.9,438 	"/>
	<line class="st1" x1="919.6" y1="438" x2="919.6" y2="442.7"/>
	<line class="st1" x1="928.7" y1="435.1" x2="928.7" y2="442.7"/>
	<ellipse class="st2" cx="928.7" cy="429.4" rx="4.3" ry="5.7"/>
</g>
<g>
	<polygon class="st1" points="802,428.7 797.7,428.7 799.9,421.7 802,414.7 804.1,421.7 806.3,428.7 	"/>
	<line class="st1" x1="802" y1="428.7" x2="802" y2="433.5"/>
	<line class="st1" x1="811.1" y1="425.9" x2="811.1" y2="433.5"/>
	<ellipse class="st2" cx="811.1" cy="420.1" rx="4.3" ry="5.7"/>
</g>
<g>
	<polygon class="st1" points="915.9,47.2 911.7,47.2 913.8,40.2 915.9,33.2 918.1,40.2 920.2,47.2 	"/>
	<line class="st1" x1="915.9" y1="47.2" x2="915.9" y2="52"/>
	<line class="st1" x1="925" y1="44.4" x2="925" y2="52"/>
	<ellipse class="st2" cx="925" cy="38.6" rx="4.3" ry="5.7"/>
</g>
<g>
	<polygon class="st1" points="881.8,191.6 877.5,191.6 879.7,184.6 881.8,177.6 884,184.6 886.1,191.6 	"/>
	<line class="st1" x1="881.8" y1="191.6" x2="881.8" y2="196.4"/>
	<line class="st1" x1="890.9" y1="188.7" x2="890.9" y2="196.4"/>
	<ellipse class="st2" cx="890.9" cy="183" rx="4.3" ry="5.7"/>
</g>
<g>
	<polygon class="st1" points="227.5,54.5 223.2,54.5 225.4,47.4 227.5,40.4 229.7,47.4 231.8,54.5 	"/>
	<line class="st1" x1="227.5" y1="54.5" x2="227.5" y2="59.2"/>
	<line class="st1" x1="236.6" y1="51.6" x2="236.6" y2="59.2"/>
	<ellipse class="st2" cx="236.6" cy="45.9" rx="4.3" ry="5.7"/>
</g>
<g>
	<polygon class="st1" points="114.5,32.3 110.2,32.3 112.4,25.3 114.5,18.3 116.7,25.3 118.8,32.3 	"/>
	<line class="st1" x1="114.5" y1="32.3" x2="114.5" y2="37.1"/>
	<line class="st1" x1="123.6" y1="29.5" x2="123.6" y2="37.1"/>
	<ellipse class="st2" cx="123.6" cy="23.7" rx="4.3" ry="5.7"/>
</g>
<g>
	<polygon class="st1" points="168,116.7 163.7,116.7 165.9,109.7 168,102.7 170.2,109.7 172.3,116.7 	"/>
	<line class="st1" x1="168" y1="116.7" x2="168" y2="121.5"/>
	<line class="st1" x1="177.1" y1="113.9" x2="177.1" y2="121.5"/>
	<ellipse class="st2" cx="177.1" cy="108.2" rx="4.3" ry="5.7"/>
</g>
<g>
	<polygon class="st1" points="50.4,107.5 46.1,107.5 48.2,100.5 50.4,93.5 52.5,100.5 54.7,107.5 	"/>
	<line class="st1" x1="50.4" y1="107.5" x2="50.4" y2="112.3"/>
	<line class="st1" x1="59.5" y1="104.7" x2="59.5" y2="112.3"/>
	<ellipse class="st2" cx="59.5" cy="98.9" rx="4.3" ry="5.7"/>
</g>
<g>
	<polygon class="st1" points="113.1,286.1 108.8,286.1 111,279 113.1,272 115.3,279 117.4,286.1 	"/>
	<line class="st1" x1="113.1" y1="286.1" x2="113.1" y2="290.8"/>
	<line class="st1" x1="122.2" y1="283.2" x2="122.2" y2="290.8"/>
	<ellipse class="st2" cx="122.2" cy="277.5" rx="4.3" ry="5.7"/>
</g>
<g>
	<polygon class="st1" points="22.1,252.9 17.8,252.9 20,245.9 22.1,238.9 24.2,245.9 26.4,252.9 	"/>
	<line class="st1" x1="22.1" y1="252.9" x2="22.1" y2="257.7"/>
	<line class="st1" x1="31.2" y1="250" x2="31.2" y2="257.7"/>
	<ellipse class="st2" cx="31.2" cy="244.3" rx="4.3" ry="5.7"/>
</g>
<g>
	<polygon class="st1" points="53.6,348.3 49.3,348.3 51.5,341.3 53.6,334.3 55.8,341.3 57.9,348.3 	"/>
	<line class="st1" x1="53.6" y1="348.3" x2="53.6" y2="353.1"/>
	<line class="st1" x1="62.7" y1="345.5" x2="62.7" y2="353.1"/>
	<ellipse class="st2" cx="62.7" cy="339.7" rx="4.3" ry="5.7"/>
</g>
<g>
	<polygon class="st1" points="95.6,191 91.3,191 93.4,184 95.6,177 97.7,184 99.9,191 	"/>
	<line class="st1" x1="95.6" y1="191" x2="95.6" y2="195.8"/>
	<line class="st1" x1="104.7" y1="188.2" x2="104.7" y2="195.8"/>
	<ellipse class="st2" cx="104.7" cy="182.4" rx="4.3" ry="5.7"/>
</g>
<g>
	<polygon class="st1" points="244.1,181.3 239.8,181.3 242,174.3 244.1,167.3 246.3,174.3 248.4,181.3 	"/>
	<line class="st1" x1="244.1" y1="181.3" x2="244.1" y2="186.1"/>
	<line class="st1" x1="253.2" y1="178.5" x2="253.2" y2="186.1"/>
	<ellipse class="st2" cx="253.2" cy="172.7" rx="4.3" ry="5.7"/>
</g>
<g>
	<polygon class="st1" points="274.1,250.5 269.8,250.5 272,243.5 274.1,236.5 276.3,243.5 278.4,250.5 	"/>
	<line class="st1" x1="274.1" y1="250.5" x2="274.1" y2="255.3"/>
	<line class="st1" x1="283.2" y1="247.7" x2="283.2" y2="255.3"/>
	<ellipse class="st2" cx="283.2" cy="241.9" rx="4.3" ry="5.7"/>
</g>
<g>
	<polygon class="st1" points="327.6,335 323.3,335 325.5,327.9 327.6,320.9 329.8,327.9 331.9,335 	"/>
	<line class="st1" x1="327.6" y1="335" x2="327.6" y2="339.7"/>
	<line class="st1" x1="336.7" y1="332.1" x2="336.7" y2="339.7"/>
	<ellipse class="st2" cx="336.7" cy="326.4" rx="4.3" ry="5.7"/>
</g>
<g>
	<polygon class="st1" points="210,325.7 205.7,325.7 207.9,318.7 210,311.7 212.1,318.7 214.3,325.7 	"/>
	<line class="st1" x1="210" y1="325.7" x2="210" y2="330.5"/>
	<line class="st1" x1="219.1" y1="322.9" x2="219.1" y2="330.5"/>
	<ellipse class="st2" cx="219.1" cy="317.1" rx="4.3" ry="5.7"/>
</g>
<g>
	<polygon class="st1" points="289.8,88.6 285.5,88.6 287.7,81.6 289.8,74.6 292,81.6 294.1,88.6 	"/>
	<line class="st1" x1="289.8" y1="88.6" x2="289.8" y2="93.4"/>
	<line class="st1" x1="298.9" y1="85.7" x2="298.9" y2="93.4"/>
	<ellipse class="st2" cx="298.9" cy="80" rx="4.3" ry="5.7"/>
</g>
<g>
	<polygon class="st1" points="1159,65.7 1154.7,65.7 1156.9,58.7 1159,51.7 1161.2,58.7 1163.3,65.7 	"/>
	<line class="st1" x1="1159" y1="65.7" x2="1159" y2="70.5"/>
	<line class="st1" x1="1168.1" y1="62.8" x2="1168.1" y2="70.5"/>
	<ellipse class="st2" cx="1168.1" cy="57.1" rx="4.3" ry="5.7"/>
</g>
<g>
	<polygon class="st1" points="1019.7,56 1015.4,56 1017.6,49 1019.7,42 1021.9,49 1024,56 	"/>
	<line class="st1" x1="1019.7" y1="56" x2="1019.7" y2="60.8"/>
	<line class="st1" x1="1028.8" y1="53.2" x2="1028.8" y2="60.8"/>
	<ellipse class="st2" cx="1028.8" cy="47.4" rx="4.3" ry="5.7"/>
</g>
<g>
	<polygon class="st1" points="1073.2,140.4 1068.9,140.4 1071.1,133.4 1073.2,126.4 1075.4,133.4 1077.5,140.4 	"/>
	<line class="st1" x1="1073.2" y1="140.4" x2="1073.2" y2="145.2"/>
	<line class="st1" x1="1082.3" y1="137.6" x2="1082.3" y2="145.2"/>
	<ellipse class="st2" cx="1082.3" cy="131.8" rx="4.3" ry="5.7"/>
</g>
<g>
	<polygon class="st1" points="955.6,131.2 951.3,131.2 953.4,124.2 955.6,117.2 957.7,124.2 959.9,131.2 	"/>
	<line class="st1" x1="955.6" y1="131.2" x2="955.6" y2="136"/>
	<line class="st1" x1="964.7" y1="128.3" x2="964.7" y2="136"/>
	<ellipse class="st2" cx="964.7" cy="122.6" rx="4.3" ry="5.7"/>
</g>
<g>
	<polygon class="st1" points="1238.4,127.5 1234.1,127.5 1236.2,120.5 1238.4,113.5 1240.5,120.5 1242.7,127.5 	"/>
	<line class="st1" x1="1238.4" y1="127.5" x2="1238.4" y2="132.3"/>
	<line class="st1" x1="1247.5" y1="124.7" x2="1247.5" y2="132.3"/>
	<ellipse class="st2" cx="1247.5" cy="118.9" rx="4.3" ry="5.7"/>
</g>
<g>
	<polygon class="st1" points="1141.5,192.1 1137.2,192.1 1139.4,185.1 1141.5,178.1 1143.7,185.1 1145.8,192.1 	"/>
	<line class="st1" x1="1141.5" y1="192.1" x2="1141.5" y2="196.9"/>
	<line class="st1" x1="1150.6" y1="189.2" x2="1150.6" y2="196.9"/>
	<ellipse class="st2" cx="1150.6" cy="183.5" rx="4.3" ry="5.7"/>
</g>
<g>
	<polygon class="st1" points="1188.1,283.9 1183.8,283.9 1186,276.9 1188.1,269.9 1190.2,276.9 1192.4,283.9 	"/>
	<line class="st1" x1="1188.1" y1="283.9" x2="1188.1" y2="288.7"/>
	<line class="st1" x1="1197.2" y1="281" x2="1197.2" y2="288.7"/>
	<ellipse class="st2" cx="1197.2" cy="275.3" rx="4.3" ry="5.7"/>
</g>
<g>
	<polygon class="st1" points="1241.6,368.3 1237.3,368.3 1239.5,361.3 1241.6,354.3 1243.8,361.3 1245.9,368.3 	"/>
	<line class="st1" x1="1241.6" y1="368.3" x2="1241.6" y2="373.1"/>
	<line class="st1" x1="1250.7" y1="365.5" x2="1250.7" y2="373.1"/>
	<ellipse class="st2" cx="1250.7" cy="359.7" rx="4.3" ry="5.7"/>
</g>
<g>
	<polygon class="st1" points="1124,359.1 1119.7,359.1 1121.8,352.1 1124,345.1 1126.1,352.1 1128.3,359.1 	"/>
	<line class="st1" x1="1124" y1="359.1" x2="1124" y2="363.9"/>
	<line class="st1" x1="1133" y1="356.2" x2="1133" y2="363.9"/>
	<ellipse class="st2" cx="1133" cy="350.5" rx="4.3" ry="5.7"/>
</g>
<g>
	<polygon class="st1" points="1027.1,296.4 1022.8,296.4 1025,289.3 1027.1,282.3 1029.2,289.3 1031.4,296.4 	"/>
	<line class="st1" x1="1027.1" y1="296.4" x2="1027.1" y2="301.1"/>
	<line class="st1" x1="1036.2" y1="293.5" x2="1036.2" y2="301.1"/>
	<ellipse class="st2" cx="1036.2" cy="287.8" rx="4.3" ry="5.7"/>
</g>
<g>
	<polygon class="st1" points="967.6,358.6 963.3,358.6 965.4,351.6 967.6,344.6 969.7,351.6 971.9,358.6 	"/>
	<line class="st1" x1="967.6" y1="358.6" x2="967.6" y2="363.4"/>
	<line class="st1" x1="976.7" y1="355.8" x2="976.7" y2="363.4"/>
	<ellipse class="st2" cx="976.7" cy="350.1" rx="4.3" ry="5.7"/>
</g>
<g>
	<polygon class="st1" points="1000.8,201.3 996.5,201.3 998.7,194.3 1000.8,187.3 1003,194.3 1005.1,201.3 	"/>
	<line class="st1" x1="1000.8" y1="201.3" x2="1000.8" y2="206.1"/>
	<line class="st1" x1="1009.9" y1="198.5" x2="1009.9" y2="206.1"/>
	<ellipse class="st2" cx="1009.9" cy="192.7" rx="4.3" ry="5.7"/>
</g>
<g>
	<polygon class="st1" points="563,734.7 558.7,734.7 560.9,727.7 563,720.7 565.2,727.7 567.3,734.7 	"/>
	<line class="st1" x1="563" y1="734.7" x2="563" y2="739.5"/>
	<line class="st1" x1="572.1" y1="731.8" x2="572.1" y2="739.5"/>
	<ellipse class="st2" cx="572.1" cy="726.1" rx="4.3" ry="5.7"/>
</g>
<g>
	<polygon class="st1" points="596.7,619.8 592.4,619.8 594.6,612.8 596.7,605.8 598.9,612.8 601,619.8 	"/>
	<line class="st1" x1="596.7" y1="619.8" x2="596.7" y2="624.6"/>
	<line class="st1" x1="605.8" y1="617" x2="605.8" y2="624.6"/>
	<ellipse class="st2" cx="605.8" cy="611.2" rx="4.3" ry="5.7"/>
</g>
<g>
	<polygon class="st1" points="472.7,543.8 468.4,543.8 470.6,536.8 472.7,529.8 474.9,536.8 477,543.8 	"/>
	<line class="st1" x1="472.7" y1="543.8" x2="472.7" y2="548.6"/>
	<line class="st1" x1="481.8" y1="541" x2="481.8" y2="548.6"/>
	<ellipse class="st2" cx="481.8" cy="535.2" rx="4.3" ry="5.7"/>
</g>
<g>
	<polygon class="st1" points="393.7,655.8 389.4,655.8 391.6,648.8 393.7,641.8 395.9,648.8 398,655.8 	"/>
	<line class="st1" x1="393.7" y1="655.8" x2="393.7" y2="660.6"/>
	<line class="st1" x1="402.8" y1="653" x2="402.8" y2="660.6"/>
	<ellipse class="st2" cx="402.8" cy="647.2" rx="4.3" ry="5.7"/>
</g>
<g>
	<polygon class="st1" points="423.7,725 419.4,725 421.6,718 423.7,711 425.9,718 428,725 	"/>
	<line class="st1" x1="423.7" y1="725" x2="423.7" y2="729.8"/>
	<line class="st1" x1="432.8" y1="722.2" x2="432.8" y2="729.8"/>
	<ellipse class="st2" cx="432.8" cy="716.4" rx="4.3" ry="5.7"/>
</g>
<g>
	<polygon class="st1" points="477.2,809.4 472.9,809.4 475.1,802.4 477.2,795.4 479.4,802.4 481.5,809.4 	"/>
	<line class="st1" x1="477.2" y1="809.4" x2="477.2" y2="814.2"/>
	<line class="st1" x1="486.3" y1="806.6" x2="486.3" y2="814.2"/>
	<ellipse class="st2" cx="486.3" cy="800.8" rx="4.3" ry="5.7"/>
</g>
<g>
	<polygon class="st1" points="359.6,800.2 355.3,800.2 357.4,793.2 359.6,786.2 361.7,793.2 363.9,800.2 	"/>
	<line class="st1" x1="359.6" y1="800.2" x2="359.6" y2="805"/>
	<line class="st1" x1="368.7" y1="797.3" x2="368.7" y2="805"/>
	<ellipse class="st2" cx="368.7" cy="791.6" rx="4.3" ry="5.7"/>
</g>
<g>
	<polygon class="st1" points="510.4,652.1 506.2,652.1 508.3,645.1 510.4,638.1 512.6,645.1 514.7,652.1 	"/>
	<line class="st1" x1="510.4" y1="652.1" x2="510.4" y2="656.9"/>
	<line class="st1" x1="519.5" y1="649.3" x2="519.5" y2="656.9"/>
	<ellipse class="st2" cx="519.5" cy="643.5" rx="4.3" ry="5.7"/>
</g>
<g>
	<polygon class="st1" points="819.5,743.5 815.2,743.5 817.4,736.4 819.5,729.4 821.7,736.4 823.8,743.5 	"/>
	<line class="st1" x1="819.5" y1="743.5" x2="819.5" y2="748.2"/>
	<line class="st1" x1="828.6" y1="740.6" x2="828.6" y2="748.2"/>
	<ellipse class="st2" cx="828.6" cy="734.9" rx="4.3" ry="5.7"/>
</g>
<g>
	<polygon class="st1" points="676.5,652.1 672.2,652.1 674.4,645.1 676.5,638.1 678.7,645.1 680.8,652.1 	"/>
	<line class="st1" x1="676.5" y1="652.1" x2="676.5" y2="656.9"/>
	<line class="st1" x1="685.6" y1="649.3" x2="685.6" y2="656.9"/>
	<ellipse class="st2" cx="685.6" cy="643.5" rx="4.3" ry="5.7"/>
</g>
<g>
	<polygon class="st1" points="715.5,539.1 711.2,539.1 713.4,532.1 715.5,525.1 717.7,532.1 719.8,539.1 	"/>
	<line class="st1" x1="715.5" y1="539.1" x2="715.5" y2="543.9"/>
	<line class="st1" x1="724.6" y1="536.3" x2="724.6" y2="543.9"/>
	<ellipse class="st2" cx="724.6" cy="530.5" rx="4.3" ry="5.7"/>
</g>
<g>
	<polygon class="st1" points="596.5,537.1 592.2,537.1 594.4,530.1 596.5,523.1 598.7,530.1 600.8,537.1 	"/>
	<line class="st1" x1="596.5" y1="537.1" x2="596.5" y2="541.9"/>
	<line class="st1" x1="605.6" y1="534.3" x2="605.6" y2="541.9"/>
	<ellipse class="st2" cx="605.6" cy="528.5" rx="4.3" ry="5.7"/>
</g>
<g>
	<polygon class="st1" points="706.5,721.3 702.2,721.3 704.4,714.3 706.5,707.3 708.7,714.3 710.8,721.3 	"/>
	<line class="st1" x1="706.5" y1="721.3" x2="706.5" y2="726.1"/>
	<line class="st1" x1="715.6" y1="718.5" x2="715.6" y2="726.1"/>
	<ellipse class="st2" cx="715.6" cy="712.7" rx="4.3" ry="5.7"/>
</g>
<g>
	<polygon class="st1" points="760,805.7 755.7,805.7 757.9,798.7 760,791.7 762.2,798.7 764.3,805.7 	"/>
	<line class="st1" x1="760" y1="805.7" x2="760" y2="810.5"/>
	<line class="st1" x1="769.1" y1="802.9" x2="769.1" y2="810.5"/>
	<ellipse class="st2" cx="769.1" cy="797.2" rx="4.3" ry="5.7"/>
</g>
<g>
	<polygon class="st1" points="642.4,796.5 638.1,796.5 640.2,789.5 642.4,782.5 644.5,789.5 646.7,796.5 	"/>
	<line class="st1" x1="642.4" y1="796.5" x2="642.4" y2="801.3"/>
	<line class="st1" x1="651.5" y1="793.7" x2="651.5" y2="801.3"/>
	<ellipse class="st2" cx="651.5" cy="787.9" rx="4.3" ry="5.7"/>
</g>
<g>
	<polygon class="st1" points="793.2,648.4 788.9,648.4 791.1,641.4 793.2,634.4 795.4,641.4 797.5,648.4 	"/>
	<line class="st1" x1="793.2" y1="648.4" x2="793.2" y2="653.2"/>
	<line class="st1" x1="802.3" y1="645.6" x2="802.3" y2="653.2"/>
	<ellipse class="st2" cx="802.3" cy="639.8" rx="4.3" ry="5.7"/>
</g>
<g>
	<polygon class="st1" points="836.2,535.4 831.9,535.4 834.1,528.4 836.2,521.4 838.4,528.4 840.5,535.4 	"/>
	<line class="st1" x1="836.2" y1="535.4" x2="836.2" y2="540.2"/>
	<line class="st1" x1="845.3" y1="532.6" x2="845.3" y2="540.2"/>
	<ellipse class="st2" cx="845.3" cy="526.8" rx="4.3" ry="5.7"/>
</g>
<g>
	<polygon class="st1" points="705.1,975.1 700.8,975.1 703,968 705.1,961 707.3,968 709.4,975.1 	"/>
	<line class="st1" x1="705.1" y1="975.1" x2="705.1" y2="979.8"/>
	<line class="st1" x1="714.2" y1="972.2" x2="714.2" y2="979.8"/>
	<ellipse class="st2" cx="714.2" cy="966.5" rx="4.3" ry="5.7"/>
</g>
<g>
	<polygon class="st1" points="545.5,861.1 541.2,861.1 543.4,854.1 545.5,847.1 547.7,854.1 549.8,861.1 	"/>
	<line class="st1" x1="545.5" y1="861.1" x2="545.5" y2="865.9"/>
	<line class="st1" x1="554.6" y1="858.2" x2="554.6" y2="865.9"/>
	<ellipse class="st2" cx="554.6" cy="852.5" rx="4.3" ry="5.7"/>
</g>
<g>
	<polygon class="st1" points="592.1,952.9 587.8,952.9 590,945.9 592.1,938.9 594.2,945.9 596.4,952.9 	"/>
	<line class="st1" x1="592.1" y1="952.9" x2="592.1" y2="957.7"/>
	<line class="st1" x1="601.2" y1="950" x2="601.2" y2="957.7"/>
	<ellipse class="st2" cx="601.2" cy="944.3" rx="4.3" ry="5.7"/>
</g>
<g>
	<polygon class="st1" points="687.6,880 683.3,880 685.4,873 687.6,866 689.7,873 691.9,880 	"/>
	<line class="st1" x1="687.6" y1="880" x2="687.6" y2="884.8"/>
	<line class="st1" x1="696.7" y1="877.2" x2="696.7" y2="884.8"/>
	<ellipse class="st2" cx="696.7" cy="871.4" rx="4.3" ry="5.7"/>
</g>
<g>
	<polygon class="st1" points="431.1,965.4 426.8,965.4 429,958.3 431.1,951.3 433.2,958.3 435.4,965.4 	"/>
	<line class="st1" x1="431.1" y1="965.4" x2="431.1" y2="970.1"/>
	<line class="st1" x1="440.2" y1="962.5" x2="440.2" y2="970.1"/>
	<ellipse class="st2" cx="440.2" cy="956.8" rx="4.3" ry="5.7"/>
</g>
<g>
	<polygon class="st1" points="404.8,870.3 400.5,870.3 402.7,863.3 404.8,856.3 407,863.3 409.1,870.3 	"/>
	<line class="st1" x1="404.8" y1="870.3" x2="404.8" y2="875.1"/>
	<line class="st1" x1="413.9" y1="867.5" x2="413.9" y2="875.1"/>
	<ellipse class="st2" cx="413.9" cy="861.7" rx="4.3" ry="5.7"/>
</g>
<g>
	<polygon class="st1" points="836.1,870.3 831.8,870.3 834,863.3 836.1,856.3 838.3,863.3 840.4,870.3 	"/>
	<line class="st1" x1="836.1" y1="870.3" x2="836.1" y2="875.1"/>
	<line class="st1" x1="845.2" y1="867.5" x2="845.2" y2="875.1"/>
	<ellipse class="st2" cx="845.2" cy="861.7" rx="4.3" ry="5.7"/>
</g>
<g>
	<polygon class="st1" points="866.1,939.5 861.8,939.5 864,932.5 866.1,925.5 868.3,932.5 870.4,939.5 	"/>
	<line class="st1" x1="866.1" y1="939.5" x2="866.1" y2="944.3"/>
	<line class="st1" x1="875.2" y1="936.7" x2="875.2" y2="944.3"/>
	<ellipse class="st2" cx="875.2" cy="930.9" rx="4.3" ry="5.7"/>
</g>
<g>
	<polygon class="st1" points="924.6,1005 920.3,1005 922.5,997.9 924.6,990.9 926.8,997.9 928.9,1005 	"/>
	<line class="st1" x1="924.6" y1="1005" x2="924.6" y2="1009.7"/>
	<line class="st1" x1="933.7" y1="1002.1" x2="933.7" y2="1009.7"/>
	<ellipse class="st2" cx="933.7" cy="996.4" rx="4.3" ry="5.7"/>
</g>
<g>
	<polygon class="st1" points="802,1014.7 797.7,1014.7 799.9,1007.7 802,1000.7 804.1,1007.7 806.3,1014.7 	"/>
	<line class="st1" x1="802" y1="1014.7" x2="802" y2="1019.5"/>
	<line class="st1" x1="811.1" y1="1011.9" x2="811.1" y2="1019.5"/>
	<ellipse class="st2" cx="811.1" cy="1006.1" rx="4.3" ry="5.7"/>
</g>
<g>
	<polygon class="st1" points="915.9,633.2 911.7,633.2 913.8,626.2 915.9,619.2 918.1,626.2 920.2,633.2 	"/>
	<line class="st1" x1="915.9" y1="633.2" x2="915.9" y2="638"/>
	<line class="st1" x1="925" y1="630.4" x2="925" y2="638"/>
	<ellipse class="st2" cx="925" cy="624.6" rx="4.3" ry="5.7"/>
</g>
<g>
	<polygon class="st1" points="881.8,777.6 877.5,777.6 879.7,770.6 881.8,763.6 884,770.6 886.1,777.6 	"/>
	<line class="st1" x1="881.8" y1="777.6" x2="881.8" y2="782.4"/>
	<line class="st1" x1="890.9" y1="774.7" x2="890.9" y2="782.4"/>
	<ellipse class="st2" cx="890.9" cy="769" rx="4.3" ry="5.7"/>
</g>
<g>
	<polygon class="st1" points="4.7,516.8 0.4,516.8 2.6,509.8 4.7,502.8 6.9,509.8 9,516.8 	"/>
	<line class="st1" x1="4.7" y1="516.8" x2="4.7" y2="521.6"/>
	<line class="st1" x1="13.8" y1="514" x2="13.8" y2="521.6"/>
	<ellipse class="st2" cx="13.8" cy="508.2" rx="4.3" ry="5.7"/>
</g>
<g>
	<polygon class="st1" points="227.5,640.5 223.2,640.5 225.4,633.4 227.5,626.4 229.7,633.4 231.8,640.5 	"/>
	<line class="st1" x1="227.5" y1="640.5" x2="227.5" y2="645.2"/>
	<line class="st1" x1="236.6" y1="637.6" x2="236.6" y2="645.2"/>
	<ellipse class="st2" cx="236.6" cy="631.9" rx="4.3" ry="5.7"/>
</g>
<g>
	<polygon class="st1" points="84.5,549.1 80.2,549.1 82.4,542.1 84.5,535.1 86.7,542.1 88.8,549.1 	"/>
	<line class="st1" x1="84.5" y1="549.1" x2="84.5" y2="553.9"/>
	<line class="st1" x1="93.6" y1="546.3" x2="93.6" y2="553.9"/>
	<ellipse class="st2" cx="93.6" cy="540.5" rx="4.3" ry="5.7"/>
</g>
<g>
	<polygon class="st1" points="114.5,618.3 110.2,618.3 112.4,611.3 114.5,604.3 116.7,611.3 118.8,618.3 	"/>
	<line class="st1" x1="114.5" y1="618.3" x2="114.5" y2="623.1"/>
	<line class="st1" x1="123.6" y1="615.5" x2="123.6" y2="623.1"/>
	<ellipse class="st2" cx="123.6" cy="609.7" rx="4.3" ry="5.7"/>
</g>
<g>
	<polygon class="st1" points="168,702.7 163.7,702.7 165.9,695.7 168,688.7 170.2,695.7 172.3,702.7 	"/>
	<line class="st1" x1="168" y1="702.7" x2="168" y2="707.5"/>
	<line class="st1" x1="177.1" y1="699.9" x2="177.1" y2="707.5"/>
	<ellipse class="st2" cx="177.1" cy="694.2" rx="4.3" ry="5.7"/>
</g>
<g>
	<polygon class="st1" points="50.4,693.5 46.1,693.5 48.2,686.5 50.4,679.5 52.5,686.5 54.7,693.5 	"/>
	<line class="st1" x1="50.4" y1="693.5" x2="50.4" y2="698.3"/>
	<line class="st1" x1="59.5" y1="690.7" x2="59.5" y2="698.3"/>
	<ellipse class="st2" cx="59.5" cy="684.9" rx="4.3" ry="5.7"/>
</g>
<g>
	<polygon class="st1" points="201.2,545.4 196.9,545.4 199.1,538.4 201.2,531.4 203.4,538.4 205.5,545.4 	"/>
	<line class="st1" x1="201.2" y1="545.4" x2="201.2" y2="550.2"/>
	<line class="st1" x1="210.3" y1="542.6" x2="210.3" y2="550.2"/>
	<ellipse class="st2" cx="210.3" cy="536.8" rx="4.3" ry="5.7"/>
</g>
<g>
	<polygon class="st1" points="113.1,872.1 108.8,872.1 111,865 113.1,858 115.3,865 117.4,872.1 	"/>
	<line class="st1" x1="113.1" y1="872.1" x2="113.1" y2="876.8"/>
	<line class="st1" x1="122.2" y1="869.2" x2="122.2" y2="876.8"/>
	<ellipse class="st2" cx="122.2" cy="863.5" rx="4.3" ry="5.7"/>
</g>
<g>
	<polygon class="st1" points="18.1,847.9 13.8,847.9 16,840.9 18.1,833.9 20.2,840.9 22.4,847.9 	"/>
	<line class="st1" x1="18.1" y1="847.9" x2="18.1" y2="852.7"/>
	<line class="st1" x1="27.2" y1="845" x2="27.2" y2="852.7"/>
	<ellipse class="st2" cx="27.2" cy="839.3" rx="4.3" ry="5.7"/>
</g>
<g>
	<polygon class="st1" points="53.6,934.3 49.3,934.3 51.5,927.3 53.6,920.3 55.8,927.3 57.9,934.3 	"/>
	<line class="st1" x1="53.6" y1="934.3" x2="53.6" y2="939.1"/>
	<line class="st1" x1="62.7" y1="931.5" x2="62.7" y2="939.1"/>
	<ellipse class="st2" cx="62.7" cy="925.7" rx="4.3" ry="5.7"/>
</g>
<g>
	<polygon class="st1" points="95.6,777 91.3,777 93.4,770 95.6,763 97.7,770 99.9,777 	"/>
	<line class="st1" x1="95.6" y1="777" x2="95.6" y2="781.8"/>
	<line class="st1" x1="104.7" y1="774.2" x2="104.7" y2="781.8"/>
	<ellipse class="st2" cx="104.7" cy="768.4" rx="4.3" ry="5.7"/>
</g>
<g>
	<polygon class="st1" points="244.1,767.3 239.8,767.3 242,760.3 244.1,753.3 246.3,760.3 248.4,767.3 	"/>
	<line class="st1" x1="244.1" y1="767.3" x2="244.1" y2="772.1"/>
	<line class="st1" x1="253.2" y1="764.5" x2="253.2" y2="772.1"/>
	<ellipse class="st2" cx="253.2" cy="758.7" rx="4.3" ry="5.7"/>
</g>
<g>
	<polygon class="st1" points="274.1,836.5 269.8,836.5 272,829.5 274.1,822.5 276.3,829.5 278.4,836.5 	"/>
	<line class="st1" x1="274.1" y1="836.5" x2="274.1" y2="841.3"/>
	<line class="st1" x1="283.2" y1="833.7" x2="283.2" y2="841.3"/>
	<ellipse class="st2" cx="283.2" cy="827.9" rx="4.3" ry="5.7"/>
</g>
<g>
	<polygon class="st1" points="327.6,921 323.3,921 325.5,913.9 327.6,906.9 329.8,913.9 331.9,921 	"/>
	<line class="st1" x1="327.6" y1="921" x2="327.6" y2="925.7"/>
	<line class="st1" x1="336.7" y1="918.1" x2="336.7" y2="925.7"/>
	<ellipse class="st2" cx="336.7" cy="912.4" rx="4.3" ry="5.7"/>
</g>
<g>
	<polygon class="st1" points="210,911.7 205.7,911.7 207.9,904.7 210,897.7 212.1,904.7 214.3,911.7 	"/>
	<line class="st1" x1="210" y1="911.7" x2="210" y2="916.5"/>
	<line class="st1" x1="219.1" y1="908.9" x2="219.1" y2="916.5"/>
	<ellipse class="st2" cx="219.1" cy="903.1" rx="4.3" ry="5.7"/>
</g>
<g>
	<polygon class="st1" points="323.9,530.2 319.7,530.2 321.8,523.2 323.9,516.2 326.1,523.2 328.2,530.2 	"/>
	<line class="st1" x1="323.9" y1="530.2" x2="323.9" y2="535"/>
	<line class="st1" x1="333" y1="527.4" x2="333" y2="535"/>
	<ellipse class="st2" cx="333" cy="521.6" rx="4.3" ry="5.7"/>
</g>
<g>
	<polygon class="st1" points="149.9,436.2 145.7,436.2 147.8,429.2 149.9,422.2 152.1,429.2 154.2,436.2 	"/>
	<line class="st1" x1="149.9" y1="436.2" x2="149.9" y2="441"/>
	<line class="st1" x1="159" y1="433.4" x2="159" y2="441"/>
	<ellipse class="st2" cx="159" cy="427.6" rx="4.3" ry="5.7"/>
</g>
<g>
	<polygon class="st1" points="289.8,674.6 285.5,674.6 287.7,667.6 289.8,660.6 292,667.6 294.1,674.6 	"/>
	<line class="st1" x1="289.8" y1="674.6" x2="289.8" y2="679.4"/>
	<line class="st1" x1="298.9" y1="671.7" x2="298.9" y2="679.4"/>
	<ellipse class="st2" cx="298.9" cy="666" rx="4.3" ry="5.7"/>
</g>
<g>
	<polygon class="st1" points="1159,651.7 1154.7,651.7 1156.9,644.7 1159,637.7 1161.2,644.7 1163.3,651.7 	"/>
	<line class="st1" x1="1159" y1="651.7" x2="1159" y2="656.5"/>
	<line class="st1" x1="1168.1" y1="648.8" x2="1168.1" y2="656.5"/>
	<ellipse class="st2" cx="1168.1" cy="643.1" rx="4.3" ry="5.7"/>
</g>
<g>
	<polygon class="st1" points="1192.7,536.8 1188.4,536.8 1190.6,529.8 1192.7,522.8 1194.9,529.8 1197,536.8 	"/>
	<line class="st1" x1="1192.7" y1="536.8" x2="1192.7" y2="541.6"/>
	<line class="st1" x1="1201.8" y1="534" x2="1201.8" y2="541.6"/>
	<ellipse class="st2" cx="1201.8" cy="528.2" rx="4.3" ry="5.7"/>
</g>
<g>
	<polygon class="st1" points="989.7,572.8 985.4,572.8 987.6,565.8 989.7,558.8 991.9,565.8 994,572.8 	"/>
	<line class="st1" x1="989.7" y1="572.8" x2="989.7" y2="577.6"/>
	<line class="st1" x1="998.8" y1="570" x2="998.8" y2="577.6"/>
	<ellipse class="st2" cx="998.8" cy="564.2" rx="4.3" ry="5.7"/>
</g>
<g>
	<polygon class="st1" points="1035.7,460.8 1031.4,460.8 1033.6,453.8 1035.7,446.8 1037.9,453.8 1040,460.8 	"/>
	<line class="st1" x1="1035.7" y1="460.8" x2="1035.7" y2="465.6"/>
	<line class="st1" x1="1044.8" y1="458" x2="1044.8" y2="465.6"/>
	<ellipse class="st2" cx="1044.8" cy="452.2" rx="4.3" ry="5.7"/>
</g>
<g>
	<polygon class="st1" points="1019.7,642 1015.4,642 1017.6,635 1019.7,628 1021.9,635 1024,642 	"/>
	<line class="st1" x1="1019.7" y1="642" x2="1019.7" y2="646.8"/>
	<line class="st1" x1="1028.8" y1="639.2" x2="1028.8" y2="646.8"/>
	<ellipse class="st2" cx="1028.8" cy="633.4" rx="4.3" ry="5.7"/>
</g>
<g>
	<polygon class="st1" points="1073.2,726.4 1068.9,726.4 1071.1,719.4 1073.2,712.4 1075.4,719.4 1077.5,726.4 	"/>
	<line class="st1" x1="1073.2" y1="726.4" x2="1073.2" y2="731.2"/>
	<line class="st1" x1="1082.3" y1="723.6" x2="1082.3" y2="731.2"/>
	<ellipse class="st2" cx="1082.3" cy="717.8" rx="4.3" ry="5.7"/>
</g>
<g>
	<polygon class="st1" points="955.6,717.2 951.3,717.2 953.4,710.2 955.6,703.2 957.7,710.2 959.9,717.2 	"/>
	<line class="st1" x1="955.6" y1="717.2" x2="955.6" y2="722"/>
	<line class="st1" x1="964.7" y1="714.3" x2="964.7" y2="722"/>
	<ellipse class="st2" cx="964.7" cy="708.6" rx="4.3" ry="5.7"/>
</g>
<g>
	<polygon class="st1" points="1106.4,569.1 1102.2,569.1 1104.3,562.1 1106.4,555.1 1108.6,562.1 1110.7,569.1 	"/>
	<line class="st1" x1="1106.4" y1="569.1" x2="1106.4" y2="573.9"/>
	<line class="st1" x1="1115.5" y1="566.3" x2="1115.5" y2="573.9"/>
	<ellipse class="st2" cx="1115.5" cy="560.5" rx="4.3" ry="5.7"/>
</g>
<g>
	<polygon class="st1" points="1167.4,445.1 1163.2,445.1 1165.3,438.1 1167.4,431.1 1169.6,438.1 1171.7,445.1 	"/>
	<line class="st1" x1="1167.4" y1="445.1" x2="1167.4" y2="449.9"/>
	<line class="st1" x1="1176.5" y1="442.3" x2="1176.5" y2="449.9"/>
	<ellipse class="st2" cx="1176.5" cy="436.5" rx="4.3" ry="5.7"/>
</g>
<g>
	<polygon class="st1" points="1238.4,713.5 1234.1,713.5 1236.2,706.5 1238.4,699.5 1240.5,706.5 1242.7,713.5 	"/>
	<line class="st1" x1="1238.4" y1="713.5" x2="1238.4" y2="718.3"/>
	<line class="st1" x1="1247.5" y1="710.7" x2="1247.5" y2="718.3"/>
	<ellipse class="st2" cx="1247.5" cy="704.9" rx="4.3" ry="5.7"/>
</g>
<g>
	<polygon class="st1" points="1141.5,778.1 1137.2,778.1 1139.4,771.1 1141.5,764.1 1143.7,771.1 1145.8,778.1 	"/>
	<line class="st1" x1="1141.5" y1="778.1" x2="1141.5" y2="782.9"/>
	<line class="st1" x1="1150.6" y1="775.2" x2="1150.6" y2="782.9"/>
	<ellipse class="st2" cx="1150.6" cy="769.5" rx="4.3" ry="5.7"/>
</g>
<g>
	<polygon class="st1" points="1188.1,869.9 1183.8,869.9 1186,862.9 1188.1,855.9 1190.2,862.9 1192.4,869.9 	"/>
	<line class="st1" x1="1188.1" y1="869.9" x2="1188.1" y2="874.7"/>
	<line class="st1" x1="1197.2" y1="867" x2="1197.2" y2="874.7"/>
	<ellipse class="st2" cx="1197.2" cy="861.3" rx="4.3" ry="5.7"/>
</g>
<g>
	<polygon class="st1" points="1241.6,954.3 1237.3,954.3 1239.5,947.3 1241.6,940.3 1243.8,947.3 1245.9,954.3 	"/>
	<line class="st1" x1="1241.6" y1="954.3" x2="1241.6" y2="959.1"/>
	<line class="st1" x1="1250.7" y1="951.5" x2="1250.7" y2="959.1"/>
	<ellipse class="st2" cx="1250.7" cy="945.7" rx="4.3" ry="5.7"/>
</g>
<g>
	<polygon class="st1" points="1124,945.1 1119.7,945.1 1121.8,938.1 1124,931.1 1126.1,938.1 1128.3,945.1 	"/>
	<line class="st1" x1="1124" y1="945.1" x2="1124" y2="949.9"/>
	<line class="st1" x1="1133" y1="942.2" x2="1133" y2="949.9"/>
	<ellipse class="st2" cx="1133" cy="936.5" rx="4.3" ry="5.7"/>
</g>
<g>
	<polygon class="st1" points="1027.1,882.4 1022.8,882.4 1025,875.3 1027.1,868.3 1029.2,875.3 1031.4,882.4 	"/>
	<line class="st1" x1="1027.1" y1="882.4" x2="1027.1" y2="887.1"/>
	<line class="st1" x1="1036.2" y1="879.5" x2="1036.2" y2="887.1"/>
	<ellipse class="st2" cx="1036.2" cy="873.8" rx="4.3" ry="5.7"/>
</g>
<g>
	<polygon class="st1" points="967.6,944.6 963.3,944.6 965.4,937.6 967.6,930.6 969.7,937.6 971.9,944.6 	"/>
	<line class="st1" x1="967.6" y1="944.6" x2="967.6" y2="949.4"/>
	<line class="st1" x1="976.7" y1="941.8" x2="976.7" y2="949.4"/>
	<ellipse class="st2" cx="976.7" cy="936.1" rx="4.3" ry="5.7"/>
</g>
<g>
	<polygon class="st1" points="1000.8,787.3 996.5,787.3 998.7,780.3 1000.8,773.3 1003,780.3 1005.1,787.3 	"/>
	<line class="st1" x1="1000.8" y1="787.3" x2="1000.8" y2="792.1"/>
	<line class="st1" x1="1009.9" y1="784.5" x2="1009.9" y2="792.1"/>
	<ellipse class="st2" cx="1009.9" cy="778.7" rx="4.3" ry="5.7"/>
</g>
</svg>
