<?xml version="1.0" encoding="utf-8"?>
<!-- Generator: Adobe Illustrator 25.4.1, SVG Export Plug-In . SVG Version: 6.00 Build 0)  -->
<svg version="1.1" id="Layer_1" xmlns="http://www.w3.org/2000/svg" xmlns:xlink="http://www.w3.org/1999/xlink" x="0px" y="0px"
	 viewBox="0 0 20 20" style="enable-background:new 0 0 20 20;" xml:space="preserve">
<style type="text/css">
	.st0{fill:none;stroke:#242424;stroke-miterlimit:10;}
</style>
<g>
	<path class="st0" d="M10,18.9c-1.5,0-3,0-4.5,0c-0.6,0-1.1-0.1-1.6-0.5c-1.6-1.2-0.8-3.3,0.1-4.7c0.7-1,1.6-1.8,2.8-2.2
		c1.4-0.6,2.8-0.6,4.3-0.4c1.2,0.1,2.3,0.4,3.2,1.1c1.5,1.1,2.4,2.6,2.6,4.4c0.2,1.2-0.2,2.4-2.2,2.4c-1.1,0-2.3,0-3.4,0
		C10.9,18.9,10.4,18.9,10,18.9z"/>
	<path class="st0" d="M10,1.1c2,0,3.6,1.6,3.6,3.7c0,1.9-1.6,3.5-3.6,3.5S6.4,6.7,6.4,4.7S8,1.1,10,1.1z"/>
</g>
</svg>
